<svg width="56" height="56" viewBox="0 0 56 56" fill="none" xmlns="http://www.w3.org/2000/svg">
<rect width="56" height="56" rx="28" fill="#D8B961"/>
<path d="M25.2428 25.6486L24.4893 27.7271H25.9897L25.2428 25.6486ZM25.2428 25.6486L24.4893 27.7271H25.9897L25.2428 25.6486ZM27.9902 16.8218C20.8456 16.8218 15 21.2969 15 26.8112C15 30.3771 17.4292 33.5077 21.0859 35.2549C20.8846 35.9044 19.7869 39.5611 19.7869 39.8469C19.7869 39.8469 19.7869 40.0613 19.9038 40.1457C19.9519 40.167 20.0039 40.178 20.0564 40.178C20.109 40.178 20.161 40.167 20.2091 40.1457C20.6183 40.0872 24.9505 37.119 25.7039 36.6059C26.468 36.711 27.2384 36.7631 28.0097 36.7617C35.1543 36.7617 40.9999 32.2931 40.9999 26.7723C40.9999 21.2514 35.1933 16.8218 27.9902 16.8218ZM21.5536 29.6041C21.5536 29.8022 21.4749 29.9922 21.3348 30.1323C21.1947 30.2724 21.0047 30.3511 20.8066 30.3511C20.6085 30.3511 20.4185 30.2724 20.2785 30.1323C20.1384 29.9922 20.0597 29.8022 20.0597 29.6041V25.2589H18.8906C18.7967 25.2589 18.7038 25.2404 18.6172 25.2045C18.5305 25.1686 18.4517 25.116 18.3854 25.0497C18.319 24.9833 18.2664 24.9045 18.2305 24.8179C18.1946 24.7312 18.1761 24.6383 18.1761 24.5445C18.1761 24.4506 18.1946 24.3577 18.2305 24.271C18.2664 24.1844 18.319 24.1056 18.3854 24.0393C18.4517 23.9729 18.5305 23.9203 18.6172 23.8844C18.7038 23.8485 18.7967 23.83 18.8906 23.83H22.7227C22.8165 23.83 22.9094 23.8485 22.9961 23.8844C23.0828 23.9203 23.1615 23.9729 23.2279 24.0393C23.2942 24.1056 23.3468 24.1844 23.3828 24.271C23.4187 24.3577 23.4371 24.4506 23.4371 24.5445C23.4371 24.6383 23.4187 24.7312 23.3828 24.8179C23.3468 24.9045 23.2942 24.9833 23.2279 25.0497C23.1615 25.116 23.0828 25.1686 22.9961 25.2045C22.9094 25.2404 22.8165 25.2589 22.7227 25.2589H21.5536V29.6041ZM27.8538 30.1887C27.7045 30.2554 27.5432 30.2908 27.3797 30.2926C27.2514 30.3093 27.121 30.2874 27.0053 30.2295C26.8896 30.1716 26.7938 30.0805 26.7302 29.9679L26.3599 29.0196H24.0996L23.7294 29.9679C23.6658 30.0805 23.57 30.1716 23.4543 30.2295C23.3386 30.2874 23.2082 30.3093 23.0799 30.2926C22.9143 30.2913 22.7507 30.2559 22.5993 30.1887C22.3914 30.0978 22.1966 29.8445 22.4239 29.1495L24.2166 24.551C24.2869 24.3423 24.421 24.161 24.5999 24.0326C24.7787 23.9042 24.9934 23.8351 25.2135 23.8351C25.4337 23.8351 25.6484 23.9042 25.8272 24.0326C26.0061 24.161 26.1402 24.3423 26.2105 24.551L28.0487 29.1495C28.2565 29.8445 28.0487 30.0978 27.8538 30.1952V30.1887ZM31.6405 30.1887H29.2373C29.0561 30.1959 28.8793 30.1319 28.7447 30.0106C28.61 29.8893 28.528 29.7201 28.5163 29.5392V24.5574C28.5163 24.3542 28.5971 24.1592 28.7408 24.0155C28.8845 23.8718 29.0795 23.791 29.2827 23.791C29.486 23.791 29.6809 23.8718 29.8247 24.0155C29.9684 24.1592 30.0492 24.3542 30.0492 24.5574V28.8572H31.6405C31.8179 28.8572 31.988 28.9277 32.1135 29.0531C32.239 29.1786 32.3094 29.3488 32.3094 29.5262C32.3094 29.7036 32.239 29.8738 32.1135 29.9992C31.988 30.1247 31.8179 30.1952 31.6405 30.1952V30.1887ZM37.486 29.6366C37.4732 29.7318 37.4412 29.8235 37.3921 29.9061C37.343 29.9886 37.2778 30.0605 37.2003 30.1173C37.0681 30.2135 36.9091 30.2658 36.7456 30.2666C36.6302 30.2674 36.5162 30.2414 36.4125 30.1907C36.3088 30.14 36.2183 30.0659 36.1481 29.9744L34.3944 27.7076L34.1281 27.9609V29.5457C34.1281 29.7438 34.0494 29.9338 33.9093 30.0738C33.7692 30.2139 33.5792 30.2926 33.3811 30.2926C33.183 30.2926 32.9931 30.2139 32.853 30.0738C32.7129 29.9338 32.6342 29.7438 32.6342 29.5457V24.5445C32.6342 24.3464 32.7129 24.1564 32.853 24.0163C32.9931 23.8762 33.183 23.7975 33.3811 23.7975C33.5792 23.7975 33.7692 23.8762 33.9093 24.0163C34.0494 24.1564 34.1281 24.3464 34.1281 24.5445V26.1163L36.2195 24.0768C36.3323 23.9716 36.481 23.9135 36.6352 23.9144C36.8294 23.9168 37.0154 23.9935 37.1548 24.1288C37.2827 24.2527 37.3612 24.4189 37.3756 24.5964C37.3806 24.6778 37.3681 24.7594 37.339 24.8355C37.3099 24.9117 37.2648 24.9808 37.2068 25.0381L35.518 26.7203L37.3626 29.104C37.425 29.1776 37.4702 29.2642 37.4949 29.3574C37.5196 29.4507 37.5232 29.5483 37.5055 29.6431L37.486 29.6366ZM24.4958 27.7206H25.9962L25.2428 25.6486L24.4958 27.7206ZM25.2428 25.6486L24.4893 27.7271H25.9897L25.2428 25.6486ZM25.2428 25.6486L24.4893 27.7271H25.9897L25.2428 25.6486Z" fill="white"/>
</svg>
