<svg width="32" height="32" viewBox="0 0 32 32" fill="none" xmlns="http://www.w3.org/2000/svg">
<path d="M21.0718 4.00183H10.928C7.10067 4.00183 3.99976 7.10275 3.99976 10.93V21.0739C3.99976 24.8969 7.10067 27.9978 10.928 27.9978H21.0718C24.8991 27.9978 28 24.8969 28 21.0739V10.93C27.9957 7.10275 24.8948 4.00183 21.0718 4.00183ZM25.7869 21.2523C25.7869 23.7925 23.7267 25.8484 21.1907 25.8484H10.809C8.26882 25.8484 6.21287 23.7882 6.21287 21.2523V10.8706C6.21287 8.33037 8.27307 6.27442 10.809 6.27442H21.1907C23.7309 6.27442 25.7869 8.33462 25.7869 10.8706V21.2523Z" fill="#1D1D1D"/>
<path d="M15.9998 9.83435C12.559 9.83435 9.77246 12.6209 9.77246 16.0617C9.77246 19.5024 12.559 22.289 15.9998 22.289C19.4405 22.289 22.2271 19.5024 22.2271 16.0617C22.2271 12.6209 19.4405 9.83435 15.9998 9.83435ZM15.9998 20.0971C13.7697 20.0971 11.9643 18.2918 11.9643 16.0617C11.9643 13.8316 13.7697 12.0262 15.9998 12.0262C18.2299 12.0262 20.0352 13.8316 20.0352 16.0617C20.0352 18.2918 18.2299 20.0971 15.9998 20.0971Z" fill="#1D1D1D"/>
<path d="M22.4312 8.14844C21.6283 8.14844 20.9827 8.79836 20.9827 9.59695C20.9827 10.3955 21.6326 11.0455 22.4312 11.0455C23.2298 11.0455 23.8797 10.3955 23.8797 9.59695C23.8797 8.79836 23.2298 8.14844 22.4312 8.14844Z" fill="#1D1D1D"/>
</svg>
