<svg width="32" height="32" viewBox="0 0 32 32" fill="none" xmlns="http://www.w3.org/2000/svg">
<path d="M24.9466 4.99988H7.05351C4.77263 4.99988 2.92188 6.85555 2.92188 9.14626V18.9801C2.92188 21.2683 4.77017 23.124 7.05351 23.124H13.2153L15.3192 26.5478C15.3192 26.5478 15.3414 26.5871 15.3881 26.6461C15.511 26.8575 15.7371 27 16.0001 27C16.2631 27 16.4843 26.8575 16.6096 26.6486C16.6612 26.5871 16.6809 26.5453 16.6809 26.5453L18.7848 23.1216H24.9491C27.2299 23.1216 29.0782 21.2659 29.0782 18.9776V9.14626C29.0782 6.85555 27.2275 4.99988 24.9491 4.99988H24.9466Z" fill="#1D1D1D"/>
<path d="M8.73223 12.2064C8.73223 12.2064 8.01945 12.2064 7.37058 12.838V10.2991H5.76807V16.9697H7.38533V16.4461C7.38533 16.4461 7.76629 17.1343 8.72977 17.1343C8.72977 17.1343 10.9861 17.0508 10.9861 14.6445C10.9861 14.6445 10.9025 12.2064 8.72977 12.2064H8.73223ZM8.38075 15.726C7.81299 15.726 7.35092 15.2664 7.35092 14.6986C7.35092 14.1309 7.81299 13.6688 8.38075 13.6688C8.94852 13.6688 9.40813 14.1284 9.40813 14.6986C9.40813 15.2688 8.94852 15.726 8.38075 15.726Z" fill="#F8F3E7"/>
<path d="M11.5022 10.1464V11.6899C11.5022 11.6899 12.2322 11.6555 12.2322 13.0171V16.9669H13.7757V12.6534C13.7757 12.6534 13.8421 10.1464 11.5022 10.1464Z" fill="#F8F3E7"/>
<path d="M17.5509 12.2257C17.5509 12.2257 14.9063 12.2257 14.9063 14.6983C14.9063 14.6983 14.8203 17.134 17.5509 17.134C17.5509 17.134 20.257 17.1291 20.257 14.6983C20.257 14.6983 20.3455 12.2257 17.5509 12.2257ZM17.5509 15.7257C16.9832 15.7257 16.5211 15.2661 16.5211 14.6983C16.5211 14.1305 16.9832 13.6685 17.5509 13.6685C18.1187 13.6685 18.5808 14.1281 18.5808 14.6983C18.5808 15.2685 18.1212 15.7257 17.5509 15.7257Z" fill="#F8F3E7"/>
<path d="M24.6738 12.3881V12.8355C24.6738 12.8355 24.2142 12.2259 23.3294 12.2259C23.3294 12.2259 21.0632 12.1301 21.0632 14.6813C21.0632 14.6813 21.0387 17.0556 23.2655 17.0556C23.2655 17.0556 24.1724 17.0925 24.6714 16.446V16.8196C24.6714 16.8196 24.7844 17.9896 23.6514 17.9896H23.2655V19.4078H23.8873C23.8873 19.4078 26.2272 19.4323 26.2272 16.9057V12.3881H24.6714H24.6738ZM23.7177 15.7259C23.15 15.7259 22.6903 15.2663 22.6903 14.6985C22.6903 14.1308 23.15 13.6687 23.7177 13.6687C24.2855 13.6687 24.7476 14.1283 24.7476 14.6985C24.7476 15.2687 24.2879 15.7259 23.7177 15.7259Z" fill="#F8F3E7"/>
</svg>
