<svg width="32" height="32" viewBox="0 0 32 32" fill="none" xmlns="http://www.w3.org/2000/svg">
<path d="M28.7359 10.8023C28.7359 10.8023 28.4816 9.00994 27.7 8.22262C26.7096 7.18669 25.6029 7.18181 25.0951 7.12087C21.4592 6.85681 16 6.85681 16 6.85681H15.9903C15.9903 6.85681 10.5311 6.85681 6.89512 7.12087C6.38731 7.18181 5.28069 7.18669 4.29025 8.22262C3.50781 9.00994 3.25919 10.8023 3.25919 10.8023C3.25919 10.8023 3 12.9051 3 15.0119V16.9822C3 19.0841 3.25919 21.1917 3.25919 21.1917C3.25919 21.1917 3.5135 22.9841 4.29025 23.7714C5.28069 24.8074 6.58069 24.7716 7.15919 24.8837C9.24162 25.082 16 25.1429 16 25.1429C16 25.1429 21.4641 25.1332 25.1 24.874C25.6078 24.8131 26.7153 24.8082 27.7049 23.7722C28.4865 22.9849 28.7408 21.1926 28.7408 21.1926C28.7408 21.1926 29 19.0906 29 16.983V15.0127C28.9951 12.9099 28.7359 10.8023 28.7359 10.8023ZM13.309 19.3742V12.0666L20.3322 15.7334L13.309 19.3742Z" fill="#1D1D1D"/>
</svg>
