<svg width="16" height="16" viewBox="0 0 16 16" fill="none" xmlns="http://www.w3.org/2000/svg">
<path fill-rule="evenodd" clip-rule="evenodd" d="M6.96021 1.43069C7.53447 0.856435 8.46553 0.856435 9.03979 1.43069L14.5693 6.96017C14.9898 7.38072 15.1156 8.0132 14.888 8.56269C14.6604 9.11217 14.1242 9.47043 13.5295 9.47043H13.4201V13.5294C13.4201 14.3416 12.7618 14.9999 11.9496 14.9999H10.3698C9.55765 14.9999 8.8993 14.3416 8.8993 13.5294V11.1597C8.8993 11.0993 8.85033 11.0503 8.78993 11.0503H7.21007C7.14967 11.0503 7.1007 11.0993 7.1007 11.1597V13.5294C7.1007 14.3416 6.44235 14.9999 5.63022 14.9999H4.05037C3.23825 14.9999 2.57989 14.3416 2.57989 13.5294V9.47043H2.47052C1.87577 9.47043 1.33958 9.11217 1.11198 8.56268C0.884374 8.0132 1.01018 7.38072 1.43074 6.96017L6.96021 1.43069ZM8.07734 2.39314C8.03463 2.35043 7.96537 2.35043 7.92266 2.39314L2.39318 7.92262L1.91196 7.44139L2.39318 7.92262C2.3619 7.9539 2.35255 8.00094 2.36948 8.04181C2.3864 8.08268 2.42628 8.10933 2.47052 8.10933H3.26045C3.63631 8.10933 3.941 8.41402 3.941 8.78988V13.5294C3.941 13.5898 3.98997 13.6388 4.05037 13.6388H5.63022C5.69063 13.6388 5.7396 13.5898 5.7396 13.5294V11.1597C5.7396 10.3475 6.39795 9.68918 7.21007 9.68918H8.78993C9.60205 9.68918 10.2604 10.3475 10.2604 11.1597V13.5294C10.2604 13.5898 10.3094 13.6388 10.3698 13.6388H11.9496C12.01 13.6388 12.059 13.5898 12.059 13.5294V8.78988C12.059 8.41402 12.3637 8.10933 12.7396 8.10933H13.5295C13.5737 8.10933 13.6136 8.08268 13.6305 8.04181C13.6475 8.00094 13.6381 7.9539 13.6068 7.92262L8.07734 2.39314Z" fill="#1D1D1D"/>
</svg>
