<svg width="50" height="50" viewBox="0 0 50 50" fill="none" xmlns="http://www.w3.org/2000/svg">
<rect width="50" height="50" rx="25" fill="#D8B961"/>
<path d="M22.5382 22.9006L21.8655 24.7564H23.2051L22.5382 22.9006ZM22.5382 22.9006L21.8655 24.7564H23.2051L22.5382 22.9006ZM24.9912 15.0195C18.6121 15.0195 13.3928 19.0152 13.3928 23.9387C13.3928 27.1225 15.5617 29.9177 18.8267 31.4777C18.6469 32.0576 17.6668 35.3225 17.6668 35.5777C17.6668 35.5777 17.6668 35.7691 17.7712 35.8445C17.8141 35.8635 17.8606 35.8733 17.9075 35.8733C17.9544 35.8733 18.0009 35.8635 18.0438 35.8445C18.4091 35.7923 22.2772 33.142 22.9499 32.6839C23.6321 32.7778 24.32 32.8243 25.0086 32.8231C31.3877 32.8231 36.607 28.8332 36.607 23.9039C36.607 18.9746 31.4225 15.0195 24.9912 15.0195ZM19.2442 26.4324C19.2442 26.6092 19.174 26.7789 19.0489 26.9039C18.9238 27.029 18.7542 27.0993 18.5773 27.0993C18.4004 27.0993 18.2308 27.029 18.1057 26.9039C17.9807 26.7789 17.9104 26.6092 17.9104 26.4324V22.5527H16.8665C16.7828 22.5527 16.6998 22.5362 16.6224 22.5041C16.545 22.4721 16.4747 22.4251 16.4155 22.3659C16.3562 22.3066 16.3092 22.2363 16.2772 22.1589C16.2451 22.0815 16.2286 21.9986 16.2286 21.9148C16.2286 21.831 16.2451 21.7481 16.2772 21.6707C16.3092 21.5933 16.3562 21.5229 16.4155 21.4637C16.4747 21.4045 16.545 21.3575 16.6224 21.3254C16.6998 21.2934 16.7828 21.2769 16.8665 21.2769H20.2881C20.3718 21.2769 20.4548 21.2934 20.5322 21.3254C20.6096 21.3575 20.6799 21.4045 20.7391 21.4637C20.7984 21.5229 20.8454 21.5933 20.8774 21.6707C20.9095 21.7481 20.926 21.831 20.926 21.9148C20.926 21.9986 20.9095 22.0815 20.8774 22.1589C20.8454 22.2363 20.7984 22.3066 20.7391 22.3659C20.6799 22.4251 20.6096 22.4721 20.5322 22.5041C20.4548 22.5362 20.3718 22.5527 20.2881 22.5527H19.2442V26.4324ZM24.8694 26.9543C24.7362 27.0138 24.5921 27.0454 24.4461 27.0471C24.3315 27.062 24.2151 27.0424 24.1118 26.9907C24.0085 26.939 23.923 26.8577 23.8662 26.7571L23.5356 25.9104H21.5175L21.1869 26.7571C21.1302 26.8577 21.0446 26.939 20.9413 26.9907C20.838 27.0424 20.7216 27.062 20.607 27.0471C20.4591 27.0459 20.3131 27.0143 20.1779 26.9543C19.9923 26.8731 19.8183 26.6469 20.0213 26.0264L21.6219 21.9206C21.6847 21.7343 21.8044 21.5724 21.9641 21.4578C22.1238 21.3431 22.3155 21.2814 22.5121 21.2814C22.7087 21.2814 22.9003 21.3431 23.06 21.4578C23.2197 21.5724 23.3394 21.7343 23.4022 21.9206L25.0434 26.0264C25.229 26.6469 25.0434 26.8731 24.8694 26.9601V26.9543ZM28.2504 26.9543H26.1047C25.9429 26.9607 25.7851 26.9036 25.6648 26.7953C25.5446 26.6869 25.4714 26.5359 25.461 26.3744V21.9264C25.461 21.7449 25.5331 21.5708 25.6614 21.4425C25.7897 21.3142 25.9638 21.2421 26.1453 21.2421C26.3267 21.2421 26.5008 21.3142 26.6291 21.4425C26.7575 21.5708 26.8296 21.7449 26.8296 21.9264V25.7654H28.2504C28.4088 25.7654 28.5607 25.8284 28.6727 25.9404C28.7848 26.0524 28.8477 26.2043 28.8477 26.3628C28.8477 26.5212 28.7848 26.6731 28.6727 26.7851C28.5607 26.8972 28.4088 26.9601 28.2504 26.9601V26.9543ZM33.4696 26.4614C33.4582 26.5464 33.4296 26.6282 33.3858 26.7019C33.342 26.7757 33.2837 26.8398 33.2145 26.8905C33.0965 26.9764 32.9545 27.0231 32.8085 27.0239C32.7055 27.0246 32.6037 27.0013 32.5111 26.9561C32.4186 26.9108 32.3377 26.8447 32.275 26.7629L30.7092 24.739L30.4715 24.9652V26.3802C30.4715 26.557 30.4012 26.7267 30.2761 26.8517C30.1511 26.9768 29.9814 27.0471 29.8046 27.0471C29.6277 27.0471 29.458 26.9768 29.333 26.8517C29.2079 26.7267 29.1376 26.557 29.1376 26.3802V21.9148C29.1376 21.7379 29.2079 21.5683 29.333 21.4432C29.458 21.3181 29.6277 21.2479 29.8046 21.2479C29.9814 21.2479 30.1511 21.3181 30.2761 21.4432C30.4012 21.5683 30.4715 21.7379 30.4715 21.9148V23.3182L32.3388 21.4972C32.4395 21.4033 32.5723 21.3514 32.71 21.3523C32.8834 21.3544 33.0494 21.4229 33.1739 21.5436C33.2881 21.6543 33.3582 21.8027 33.3711 21.9612C33.3755 22.0339 33.3644 22.1067 33.3384 22.1747C33.3124 22.2427 33.2721 22.3043 33.2203 22.3555L31.7125 23.8575L33.3595 25.9858C33.4151 26.0515 33.4555 26.1288 33.4775 26.2121C33.4996 26.2954 33.5029 26.3825 33.487 26.4671L33.4696 26.4614ZM21.8713 24.7506H23.2109L22.5382 22.9006L21.8713 24.7506ZM22.5382 22.9006L21.8655 24.7564H23.2051L22.5382 22.9006ZM22.5382 22.9006L21.8655 24.7564H23.2051L22.5382 22.9006Z" fill="white"/>
</svg>
