<svg width="24" height="24" viewBox="0 0 24 24" fill="none" xmlns="http://www.w3.org/2000/svg">
<path d="M3.5 8C3.5 7.44771 3.94772 7 4.5 7H19.5C20.0523 7 20.5 7.44772 20.5 8V19.1906C20.5 19.9357 20.2018 20.6503 19.6711 21.1771C19.1404 21.704 18.4205 22 17.67 22H6.33003C5.57946 22 4.85963 21.704 4.3289 21.1771C3.79816 20.6503 3.5 19.9357 3.5 19.1906V8Z" stroke="#1D1D1D" stroke-width="1.6" stroke-miterlimit="10" stroke-linejoin="round"/>
<path d="M7.5 8.5V5.60943C7.5 4.65215 7.97411 3.73408 8.81802 3.05718C9.66193 2.38028 10.8065 2 12 2C13.1935 2 14.3381 2.38028 15.182 3.05718C16.0259 3.73408 16.5 4.65215 16.5 5.60943V8.5" stroke="#1D1D1D" stroke-width="1.6" stroke-miterlimit="10" stroke-linecap="round"/>
</svg>
