<svg width="20" height="20" viewBox="0 0 20 20" fill="none" xmlns="http://www.w3.org/2000/svg">
<path d="M13.558 1.58398H6.44184C3.7569 1.58398 1.58154 3.75935 1.58154 6.44428V13.5604C1.58154 16.2423 3.7569 18.4177 6.44184 18.4177H13.558C16.2429 18.4177 18.4182 16.2423 18.4182 13.5604V6.44428C18.4153 3.75935 16.2399 1.58398 13.558 1.58398ZM16.8657 13.6855C16.8657 15.4676 15.4204 16.9099 13.6414 16.9099H6.3584C4.57639 16.9099 3.1341 15.4646 3.1341 13.6855V6.40256C3.1341 4.62055 4.57937 3.17826 6.3584 3.17826H13.6414C15.4234 3.17826 16.8657 4.62353 16.8657 6.40256V13.6855Z" fill="#1D1D1D"/>
<path d="M9.99995 5.67578C7.58619 5.67578 5.63135 7.63063 5.63135 10.0444C5.63135 12.4581 7.58619 14.413 9.99995 14.413C12.4137 14.413 14.3686 12.4581 14.3686 10.0444C14.3686 7.63063 12.4137 5.67578 9.99995 5.67578ZM9.99995 12.8753C8.43548 12.8753 7.169 11.6089 7.169 10.0444C7.169 8.47991 8.43548 7.21343 9.99995 7.21343C11.5644 7.21343 12.8309 8.47991 12.8309 10.0444C12.8309 11.6089 11.5644 12.8753 9.99995 12.8753Z" fill="#1D1D1D"/>
<path d="M14.5115 4.49414C13.9483 4.49414 13.4954 4.95007 13.4954 5.5103C13.4954 6.07053 13.9513 6.52646 14.5115 6.52646C15.0718 6.52646 15.5277 6.07053 15.5277 5.5103C15.5277 4.95007 15.0718 4.49414 14.5115 4.49414Z" fill="#1D1D1D"/>
</svg>
