<svg width="20" height="20" viewBox="0 0 20 20" fill="none" xmlns="http://www.w3.org/2000/svg">
<path d="M18.9345 6.35379C18.9345 6.35379 18.7561 5.0964 18.2077 4.54409C17.5129 3.81735 16.7366 3.81393 16.3804 3.77118C13.8297 3.58594 9.99992 3.58594 9.99992 3.58594H9.99308C9.99308 3.58594 6.16334 3.58594 3.61264 3.77118C3.2564 3.81393 2.48008 3.81735 1.78527 4.54409C1.23637 5.0964 1.06195 6.35379 1.06195 6.35379C1.06195 6.35379 0.880127 7.82892 0.880127 9.3069V10.6891C0.880127 12.1637 1.06195 13.6422 1.06195 13.6422C1.06195 13.6422 1.24036 14.8996 1.78527 15.4519C2.48008 16.1787 3.39206 16.1536 3.79789 16.2322C5.25877 16.3713 9.99992 16.4141 9.99992 16.4141C9.99992 16.4141 13.8331 16.4072 16.3838 16.2254C16.74 16.1826 17.5169 16.1792 18.2112 15.4525C18.7595 14.9002 18.9379 13.6428 18.9379 13.6428C18.9379 13.6428 19.1197 12.1682 19.1197 10.6897V9.30747C19.1163 7.83234 18.9345 6.35379 18.9345 6.35379ZM8.11212 12.3672V7.24069L13.0391 9.81304L8.11212 12.3672Z" fill="#1D1D1D"/>
</svg>
