<svg width="20" height="20" viewBox="0 0 20 20" fill="none" xmlns="http://www.w3.org/2000/svg">
<path d="M16.2762 2.2832H3.72375C2.12366 2.2832 0.825317 3.585 0.825317 5.19198V12.0906C0.825317 13.6959 2.12194 14.9977 3.72375 14.9977H8.0464L9.52235 17.3995C9.52235 17.3995 9.53786 17.4271 9.57062 17.4685C9.65684 17.6168 9.81546 17.7168 9.99996 17.7168C10.1845 17.7168 10.3396 17.6168 10.4276 17.4702C10.4638 17.4271 10.4776 17.3978 10.4776 17.3978L11.9535 14.996H16.2779C17.878 14.996 19.1746 13.6942 19.1746 12.0889V5.19198C19.1746 3.585 17.8763 2.2832 16.2779 2.2832H16.2762Z" fill="#1D1D1D"/>
<path d="M4.90132 7.338C4.90132 7.338 4.4013 7.338 3.9461 7.78113V6H2.8219V10.6796H3.95644V10.3123C3.95644 10.3123 4.2237 10.7951 4.8996 10.7951C4.8996 10.7951 6.48245 10.7365 6.48245 9.04844C6.48245 9.04844 6.42382 7.338 4.8996 7.338H4.90132ZM4.65476 9.8071C4.25646 9.8071 3.93231 9.48467 3.93231 9.08638C3.93231 8.68808 4.25646 8.36392 4.65476 8.36392C5.05306 8.36392 5.37549 8.68635 5.37549 9.08638C5.37549 9.4864 5.05306 9.8071 4.65476 9.8071Z" fill="#F8F3E7"/>
<path d="M6.84448 5.89258V6.9754C6.84448 6.9754 7.35658 6.95126 7.35658 7.90648V10.6773H8.4394V7.65129C8.4394 7.65129 8.48595 5.89258 6.84448 5.89258Z" fill="#F8F3E7"/>
<path d="M11.0879 7.35156C11.0879 7.35156 9.23263 7.35156 9.23263 9.08614C9.23263 9.08614 9.17229 10.7949 11.0879 10.7949C11.0879 10.7949 12.9863 10.7914 12.9863 9.08614C12.9863 9.08614 13.0484 7.35156 11.0879 7.35156ZM11.0879 9.80687C10.6896 9.80687 10.3655 9.48444 10.3655 9.08614C10.3655 8.68784 10.6896 8.36369 11.0879 8.36369C11.4862 8.36369 11.8104 8.68612 11.8104 9.08614C11.8104 9.48616 11.4879 9.80687 11.0879 9.80687Z" fill="#F8F3E7"/>
<path d="M16.0848 7.46569V7.7795C16.0848 7.7795 15.7624 7.35189 15.1416 7.35189C15.1416 7.35189 13.5519 7.28465 13.5519 9.0744C13.5519 9.0744 13.5346 10.74 15.0968 10.74C15.0968 10.74 15.733 10.7659 16.0831 10.3124V10.5745C16.0831 10.5745 16.1624 11.3952 15.3675 11.3952H15.0968V12.3901H15.533C15.533 12.3901 17.1745 12.4073 17.1745 10.6348V7.46569H16.0831H16.0848ZM15.4141 9.8072C15.0158 9.8072 14.6933 9.48477 14.6933 9.08647C14.6933 8.68817 15.0158 8.36401 15.4141 8.36401C15.8124 8.36401 16.1365 8.68645 16.1365 9.08647C16.1365 9.48649 15.8141 9.8072 15.4141 9.8072Z" fill="#F8F3E7"/>
</svg>
